<?xml version="1.0" encoding="UTF-8"?>
<svg xmlns="http://www.w3.org/2000/svg" xmlns:xlink="http://www.w3.org/1999/xlink" width="1218pt" height="423pt" viewBox="0 0 1218 423" version="1.1">
<g id="surface1">
<path style=" stroke:none;fill-rule:evenodd;fill:rgb(92.89856%,10.998535%,14.099121%);fill-opacity:1;" d="M 837.09375 85.003906 L 878.953125 85.003906 L 872.765625 95.5625 L 739.054688 323.761719 C 736.058594 327.828125 732.613281 329.734375 729.214844 329.914063 L 695.839844 329.914063 L 686.546875 346.144531 L 1080.800781 346.144531 C 1252.730469 230.019531 1273.320313 1.667969 1084.691406 0.925781 L 885.4375 0.925781 Z M 682.785156 352.710938 L 669.160156 376.515625 L 1026.550781 376.515625 C 1042.191406 369.417969 1056.910156 361.410156 1070.75 352.710938 Z M 665.398438 383.082031 L 658.238281 395.589844 L 975.171875 395.589844 C 987.65625 391.941406 999.710938 387.757813 1011.300781 383.082031 Z M 654.476563 402.15625 L 648.640625 412.347656 L 850.273438 412.347656 C 885.628906 412.65625 918.691406 408.976563 949.402344 402.15625 Z M 1018.96875 82.527344 C 1073.738281 82.429688 1099.328125 120.914063 1061.511719 191.890625 C 1000.121094 307.078125 949.144531 327.988281 875.140625 327.988281 Z M 875.140625 327.988281 L 875.003906 327.984375 L 875.140625 327.988281 "/>
<path style=" stroke:none;fill-rule:evenodd;fill:rgb(13.699341%,12.199402%,12.5%);fill-opacity:1;" d="M 184.167969 105.601563 L 277.074219 105.601563 L 245.457031 158.148438 L 152.554688 158.148438 Z M 603.363281 130.402344 L 679.652344 130.402344 L 694.007813 105.386719 L 735.625 105.386719 L 721.269531 130.402344 L 810.1875 130.402344 L 750.121094 232.554688 L 709.910156 232.554688 L 739.902344 182.238281 L 609.585938 182.238281 L 579.589844 232.554688 L 543.296875 232.554688 Z M 379.148438 140.148438 L 454.542969 140.148438 L 477.289063 101.878906 L 523.710938 101.878906 L 500.964844 140.148438 L 586.394531 140.148438 L 552.902344 195.945313 L 517.105469 195.945313 C 489.121094 246.589844 455.796875 288.558594 417.527344 322.496094 C 426.402344 332.375 438.398438 340.226563 453.375 346.144531 L 560.453125 346.144531 C 563.113281 341.824219 566.144531 336.625 569.859375 330.425781 L 485.433594 330.425781 L 517.621094 275.882813 L 601.660156 275.882813 L 608.777344 262.355469 C 623.582031 261 634.605469 256.429688 640.257813 247.296875 L 576.136719 247.296875 L 605.804688 197.792969 L 722.246094 197.792969 L 692.578125 247.296875 L 651.273438 275.882813 L 723.335938 275.882813 L 691.148438 330.425781 L 609.109375 330.425781 C 605.738281 335.96875 602.628906 341.203125 599.734375 346.144531 L 560.453125 346.144531 C 558.929688 348.617188 557.527344 350.792969 556.1875 352.710938 L 595.917969 352.710938 C 590.742188 361.65625 586.277344 369.5625 582.183594 376.515625 L 375.109375 376.515625 C 372.074219 371.453125 369.367188 366.242188 366.992188 360.882813 C 358.433594 366.410156 349.679688 371.617188 340.730469 376.515625 L 172.585938 376.515625 C 173.304688 378.792969 174.019531 380.980469 174.730469 383.082031 L 245.503906 383.082031 L 243.058594 395.589844 L 301.265625 395.589844 C 310.4375 391.710938 319.429688 387.539063 328.246094 383.082031 L 245.503906 383.082031 L 246.785156 376.515625 L 253.167969 343.851563 C 289.046875 339.492188 323.105469 328.996094 355.089844 311.542969 C 352.984375 277.992188 361.382813 239.703125 381.910156 195.945313 L 345.65625 195.945313 Z M 453.375 346.144531 L 388.324219 346.144531 C 385.300781 348.378906 382.246094 350.566406 379.167969 352.710938 L 473.097656 352.710938 L 473.296875 352.464844 C 466.160156 350.683594 459.519531 348.574219 453.375 346.144531 Z M 473.097656 352.710938 L 453.84375 376.515625 L 448.53125 383.082031 L 379.289063 383.082031 C 382.164063 387.359375 385.273438 391.527344 388.621094 395.589844 L 301.265625 395.589844 C 295.863281 397.878906 290.394531 400.066406 284.867188 402.15625 L 394.3125 402.15625 C 392.34375 400 390.453125 397.808594 388.625 395.589844 L 438.410156 395.589844 L 433.101563 402.15625 L 394.3125 402.15625 C 400.90625 409.390625 408.277344 416.273438 416.375 422.832031 L 433.101563 402.15625 L 564.769531 402.15625 C 549.433594 419.675781 531.722656 423.734375 488.597656 420.882813 L 495.933594 402.15625 L 498.503906 395.589844 L 503.402344 383.082031 L 505.972656 376.515625 L 512.140625 360.769531 C 539.601563 366.574219 546.230469 366.925781 556.183594 352.710938 Z M 448.53125 383.082031 L 578.242188 383.082031 C 575.394531 387.730469 572.6875 391.886719 569.984375 395.589844 L 438.410156 395.589844 Z M 148.015625 166.554688 L 240.921875 166.554688 L 172.21875 283.335938 L 139.023438 283.335938 L 158.527344 297.921875 C 145.441406 315.964844 131.6875 331.34375 117.476563 344.902344 C 123.878906 342.933594 130.460938 340.0625 137.222656 336.292969 L 126.089844 363.808594 C 136.625 359.617188 148.488281 353.695313 161.472656 346.324219 L 144.644531 346.324219 L 248.984375 167.816406 L 282.128906 167.816406 L 287.945313 158.148438 L 254.363281 158.148438 L 285.976563 105.601563 L 387.707031 105.601563 L 356.09375 158.148438 L 318.214844 158.148438 L 312.394531 167.816406 L 350.714844 167.816406 L 246.378906 346.324219 L 212.625 346.324219 C 217.9375 354.996094 227.371094 364.585938 239.304688 374.730469 L 237.648438 376.515625 L 231.550781 383.082031 L 228.703125 386.148438 L 213.839844 402.15625 L 195.617188 421.78125 C 195.527344 421.71875 195.4375 421.65625 195.347656 421.59375 L 195.296875 421.558594 C 195.214844 421.5 195.132813 421.4375 195.050781 421.378906 L 195.019531 421.355469 C 194.929688 421.289063 194.839844 421.21875 194.75 421.148438 L 194.707031 421.117188 C 194.628906 421.054688 194.554688 420.992188 194.476563 420.929688 L 194.425781 420.890625 C 194.339844 420.820313 194.253906 420.746094 194.167969 420.675781 L 194.097656 420.613281 L 193.878906 420.425781 L 193.832031 420.386719 C 193.746094 420.308594 193.660156 420.230469 193.574219 420.152344 L 193.53125 420.109375 L 193.289063 419.882813 L 193.222656 419.820313 C 193.136719 419.738281 193.054688 419.65625 192.96875 419.574219 L 192.960938 419.5625 L 192.957031 419.5625 C 192.871094 419.476563 192.785156 419.386719 192.699219 419.300781 L 192.628906 419.226563 C 189.226563 415.726563 185.726563 410.097656 182.117188 402.15625 C 181.191406 400.121094 180.257813 397.933594 179.320313 395.589844 L 179.316406 395.589844 C 177.808594 391.824219 176.277344 387.660156 174.730469 383.082031 L 159.808594 383.082031 C 162.402344 380.984375 165.019531 378.796875 167.660156 376.515625 L 172.585938 376.515625 C 172.234375 375.40625 171.882813 374.277344 171.53125 373.125 C 170.234375 374.277344 168.941406 375.40625 167.660156 376.515625 L 20.695313 376.515625 L 28.628906 362.335938 C 63.421875 362.769531 74.753906 359.203125 91.15625 339.183594 C 78.804688 342.6875 62.8125 348.617188 45.851563 355.195313 C 54.78125 339.757813 61.289063 321.203125 66.855469 300.164063 C 85.714844 295.546875 99.105469 289.9375 107.035156 283.335938 L 79.316406 283.335938 Z M 686.546875 346.144531 L 599.738281 346.144531 C 598.425781 348.394531 597.152344 350.582031 595.921875 352.710938 L 682.785156 352.710938 Z M 669.160156 376.515625 L 582.1875 376.515625 C 580.839844 378.804688 579.527344 380.996094 578.25 383.082031 L 665.398438 383.082031 Z M 658.238281 395.589844 L 569.988281 395.589844 C 568.257813 397.960938 566.527344 400.148438 564.769531 402.15625 L 654.476563 402.15625 Z M 375.097656 376.515625 L 340.742188 376.515625 C 336.628906 378.769531 332.472656 380.960938 328.277344 383.082031 L 379.277344 383.082031 C 377.824219 380.917969 376.425781 378.734375 375.097656 376.515625 Z M 155.953125 386.148438 C 151.679688 389.488281 147.472656 392.578125 143.332031 395.414063 L 143.074219 395.589844 C 135.109375 401.035156 127.394531 405.546875 119.929688 409.121094 L 119.921875 409.128906 C 119.328125 409.410156 118.738281 409.6875 118.152344 409.960938 L 118.046875 410.007813 C 117.695313 410.167969 117.347656 410.328125 117 410.484375 L 116.882813 410.535156 L 116.324219 410.785156 L 115.730469 411.046875 L 115.289063 411.238281 L 115.035156 411.347656 L 114.578125 411.546875 L 114.539063 411.5625 L 113.949219 411.8125 L 113.914063 411.824219 L 113.589844 411.960938 L 113.105469 412.160156 L 112.699219 412.328125 L 112.078125 412.578125 L 111.769531 412.699219 L 111.210938 412.921875 L 110.976563 413.011719 C 110.75 413.101563 110.527344 413.1875 110.304688 413.269531 L 109.9375 413.410156 L 109.53125 413.5625 L 108.949219 413.777344 L 108.472656 413.949219 L 108.191406 414.050781 C 107.945313 414.140625 107.703125 414.226563 107.457031 414.3125 L 107.234375 414.390625 L 106.644531 414.59375 L 106.441406 414.664063 C 106.179688 414.75 105.921875 414.835938 105.664063 414.921875 L 105.472656 414.984375 C 105.269531 415.050781 105.0625 415.117188 104.859375 415.183594 L 104.628906 415.257813 C 104.378906 415.339844 104.132813 415.417969 103.886719 415.492188 L 103.664063 415.5625 L 103.027344 415.753906 L 102.914063 415.789063 L 102.894531 415.796875 L 102.863281 415.804688 C 102.640625 415.871094 102.414063 415.9375 102.191406 416.003906 L 101.871094 416.09375 L 101.378906 416.234375 L 100.925781 416.363281 L 100.382813 416.511719 L 100.160156 416.570313 C 99.914063 416.636719 99.671875 416.699219 99.425781 416.761719 L 99.199219 416.820313 L 98.699219 416.949219 L 98.40625 417.019531 C 98.164063 417.082031 97.921875 417.136719 97.683594 417.195313 L 97.519531 417.234375 C 97.296875 417.285156 97.074219 417.339844 96.851563 417.390625 L 96.695313 417.425781 C 96.453125 417.480469 96.214844 417.53125 95.976563 417.582031 L 95.753906 417.632813 C 95.503906 417.6875 95.253906 417.738281 95.003906 417.789063 L 95.375 402.15625 L 95.632813 391.324219 L 95.421875 391.394531 L 95.214844 391.464844 L 95.003906 391.535156 L 93.824219 391.929688 L 93.75 391.953125 L 93.742188 391.957031 L 93.539063 392.023438 L 93.332031 392.09375 L 92.109375 392.496094 L 91.460938 392.710938 L 91.257813 392.777344 L 91.050781 392.847656 L 90.84375 392.914063 L 90.488281 393.03125 L 90.429688 393.050781 L 90.226563 393.117188 L 89.402344 393.386719 L 89.199219 393.453125 L 88.789063 393.585938 L 88.585938 393.652344 L 88.378906 393.71875 L 87.566406 393.984375 L 87.359375 394.046875 L 86.953125 394.179688 L 85.792969 394.554688 L 85.738281 394.570313 L 85.535156 394.636719 L 85.335938 394.699219 L 85.132813 394.761719 L 84.929688 394.828125 L 84.128906 395.085938 L 83.925781 395.148438 L 83.726563 395.210938 L 83.671875 395.226563 C 75.425781 397.839844 67.605469 400.140625 60.183594 402.15625 L 60.082031 402.183594 C 59.378906 402.375 58.679688 402.5625 57.980469 402.746094 L 57.945313 402.757813 L 56.863281 403.042969 L 55.769531 403.332031 C 55.042969 403.523438 54.320313 403.710938 53.597656 403.894531 L 52.523438 404.167969 L 51.949219 404.316406 L 51.199219 404.503906 L 50.515625 404.675781 L 50.386719 404.707031 L 49.324219 404.96875 L 49.316406 404.972656 L 48.273438 405.226563 L 48.136719 405.261719 L 47.449219 405.425781 L 46.785156 405.585938 L 45.359375 405.925781 L 45.101563 405.988281 L 44.328125 406.167969 L 43.53125 406.355469 L 43.242188 406.421875 L 43.089844 406.457031 L 42.070313 406.691406 L 41.082031 406.914063 L 41.023438 406.925781 L 40.046875 407.144531 L 39.042969 407.367188 C 37.804688 407.640625 36.578125 407.902344 35.363281 408.15625 L 34.863281 408.257813 L 34.140625 408.40625 L 34.109375 408.414063 L 33.140625 408.613281 L 32.4375 408.753906 L 32.074219 408.824219 L 31.363281 408.964844 L 30.902344 409.058594 C 30.484375 409.140625 30.070313 409.21875 29.65625 409.296875 L 29.15625 409.394531 L 28.625 409.492188 C 27.855469 409.640625 27.09375 409.78125 26.335938 409.917969 L 25.980469 409.980469 L 25.074219 410.140625 L 24.65625 410.214844 L 23.601563 410.398438 L 23.171875 410.472656 L 22.507813 410.585938 L 22.007813 410.667969 L 20.972656 410.839844 L 20.570313 410.902344 L 19.84375 411.019531 L 19.222656 411.117188 L 18.335938 411.253906 L 18.234375 411.269531 L 17.984375 411.308594 L 17.121094 411.4375 L 16.851563 411.476563 L 15.757813 411.636719 L 15.675781 411.648438 L 15.53125 411.667969 L 14.589844 411.800781 L 14.21875 411.851563 C 13.523438 411.949219 12.832031 412.039063 12.148438 412.128906 L 11.667969 412.191406 L 11 412.273438 L 10.492188 412.335938 C 10.175781 412.375 9.855469 412.414063 9.539063 412.453125 L 9.351563 412.472656 C 8.988281 412.515625 8.628906 412.558594 8.269531 412.597656 L 8.253906 412.601563 C 7.074219 412.734375 5.910156 412.855469 4.761719 412.96875 L 4.5 412.996094 C 4.1875 413.023438 3.875 413.054688 3.566406 413.082031 L 3.480469 413.089844 C 3.125 413.125 2.773438 413.15625 2.417969 413.1875 L 2.355469 413.191406 L 2.246094 413.199219 L 1.316406 413.28125 L 1.0625 413.300781 C 0.726563 413.328125 0.394531 413.355469 0.0625 413.378906 L 6.34375 402.15625 L 15.300781 386.148438 L 17.019531 383.082031 L 159.804688 383.082031 C 158.515625 384.125 157.230469 385.148438 155.949219 386.148438 Z M 203.433594 346.324219 L 164.773438 346.324219 L 171.839844 371.734375 Z M 92.707031 337.261719 C 102.152344 325.390625 113.488281 308.164063 131.84375 283.335938 L 108.03125 283.335938 C 100.703125 305.148438 94.625 324.792969 92.707031 337.261719 Z M 207.039063 293.8125 L 236.667969 293.8125 L 229.246094 305.496094 L 199.617188 305.496094 Z M 233.085938 249.914063 L 262.714844 249.914063 L 255.289063 261.59375 L 225.664063 261.59375 Z M 258.921875 207.484375 L 288.546875 207.484375 L 281.128906 219.164063 L 251.5 219.164063 Z M 160.132813 212.03125 L 177.367188 212.03125 L 160.492188 239.046875 L 143.257813 239.046875 Z M 399.65625 281.53125 C 426.980469 259.339844 452.484375 231.027344 475.976563 195.945313 L 416.871094 195.945313 C 402.503906 230.085938 396.960938 258.488281 399.65625 281.53125 Z M 284.867188 402.15625 C 269.972656 407.792969 254.644531 412.71875 238.886719 416.949219 L 241.777344 402.15625 L 284.867188 402.15625 "/>
<path style=" stroke:none;fill-rule:nonzero;fill:rgb(13.699341%,12.199402%,12.5%);fill-opacity:1;" d="M 293.863281 0.925781 L 245.101563 84.109375 L 197.023438 84.109375 L 245.785156 0.925781 Z M 420.464844 0.925781 L 371.699219 84.109375 L 329.578125 84.109375 L 326.730469 46.296875 L 304.5625 84.109375 L 264.390625 84.109375 L 313.152344 0.925781 L 353.328125 0.925781 L 358.328125 38.386719 L 380.289063 0.925781 Z M 487.828125 0.925781 L 439.070313 84.109375 L 390.984375 84.109375 L 439.746094 0.925781 Z M 603.90625 0.925781 L 594.148438 17.570313 L 565.628906 17.570313 L 526.621094 84.109375 L 478.578125 84.109375 L 517.585938 17.570313 L 489.140625 17.570313 L 498.898438 0.925781 Z M 662.976563 0.925781 L 614.214844 84.109375 L 566.132813 84.109375 L 614.894531 0.925781 Z M 765.261719 0.925781 L 744.003906 84.109375 L 694.789063 84.109375 L 701.183594 69.148438 L 683.921875 69.148438 L 672.308594 84.109375 L 622.550781 84.109375 L 695.746094 0.925781 Z M 708.457031 54.414063 C 711.523438 44.996094 715.933594 33.355469 721.59375 19.515625 C 707.394531 35.425781 697.542969 47.050781 692.015625 54.414063 Z M 849.070313 0.925781 L 810.0625 67.464844 L 839.289063 67.464844 L 829.53125 84.109375 L 752.222656 84.109375 L 800.988281 0.925781 L 849.070313 0.925781 "/>
</g>
</svg>
